<svg preserveAspectRatio="none" overflow="visible" style="display: block;" width="150" height="25.9845" viewBox="0 0 150 25.9845" fill="none" xmlns="http://www.w3.org/2000/svg">
<g id="Vector">
<path d="M26.7664 24.79C20.4409 24.5722 15.3465 19.5535 15.1287 13.3228C15.1287 13.0955 15.3086 12.8967 15.5453 12.8967H26.7853C27.0126 12.8967 27.2019 13.0766 27.2019 13.3038V24.3734C27.2019 24.6101 27.0031 24.79 26.7758 24.7806" fill="white"/>
<path d="M12.5846 24.3833C12.5846 24.62 12.3858 24.7999 12.1585 24.7904C5.40693 24.5632 0 19.1089 0 12.3952C0 5.68154 5.40693 0.227262 12.1585 3.34228e-07C12.3952 3.34228e-07 12.5846 0.179916 12.5846 0.407177V24.3833Z" fill="white"/>
<path d="M25.671 5.19861C25.671 8.06778 23.3132 10.3972 20.3967 10.3972C17.4802 10.3972 15.1223 8.06778 15.1223 5.19861C15.1223 2.32943 17.4896 0 20.3967 0C23.3037 0 25.671 2.32943 25.671 5.19861Z" fill="white"/>
<path d="M55.0864 3.49294H40.447V5.38679H46.7156V21.2951H48.8178V5.38679H55.0864V3.49294Z" fill="white"/>
<path d="M65.2111 14.0038V21.2951H67.2091V13.5871C67.2091 12.2141 66.8398 11.0494 66.1296 10.2161C65.3815 9.33546 64.2642 8.87146 62.9006 8.87146C61.3098 8.87146 60.0125 9.48696 59.236 10.5949L58.791 11.2388V3.49294H56.793V21.2951H58.791V14.1553C58.8478 11.9963 60.1167 10.6043 62.001 10.6043C64.0653 10.6043 65.2111 11.8069 65.2111 13.9943" fill="white"/>
<path d="M70.8713 14.0426C70.9281 13.1619 71.3164 12.215 71.9319 11.59C72.6231 10.8893 73.5417 10.52 74.5833 10.52C76.7896 10.52 78.2573 11.9593 78.3141 14.0426V14.2888H70.8524L70.8713 14.0331V14.0426ZM78.5888 17.5367C77.9543 19.1465 76.676 19.9987 74.8673 19.9987C72.5569 19.9987 70.8429 18.2942 70.7861 15.9553V15.7944H80.3879C80.3974 15.6429 80.4163 15.444 80.4163 15.2546C80.4163 13.3608 79.886 11.6847 78.8918 10.5768C77.8691 9.44051 76.3635 8.84395 74.5549 8.84395C71.2785 8.84395 68.7123 11.6468 68.7123 15.2262C68.7123 17.1674 69.3563 18.8245 70.5589 19.9987C71.6762 21.0877 73.2008 21.6842 74.8673 21.6842C77.4146 21.6842 79.4599 20.3207 80.2743 18.1143L78.5888 17.5367Z" fill="white"/>
<path d="M135.768 9.22284V16.1733C135.768 17.1012 135.607 17.9251 135.295 18.6447C134.982 19.3644 134.547 19.9325 134.007 20.3681C133.458 20.7942 132.842 21.1257 132.161 21.334C131.479 21.5518 130.74 21.6559 129.954 21.6559C129.329 21.6559 128.733 21.5897 128.165 21.4571C127.596 21.3245 127.066 21.1162 126.574 20.8226C126.081 20.5386 125.646 20.1787 125.286 19.7621C124.926 19.3454 124.642 18.8246 124.434 18.2091C124.225 17.5936 124.121 16.9213 124.121 16.1733V9.22284H127.435V15.8892C127.435 16.8172 127.663 17.4989 128.117 17.9535C128.572 18.3985 129.187 18.6258 129.945 18.6258C130.702 18.6258 131.318 18.3985 131.772 17.9535C132.227 17.5084 132.464 16.8172 132.464 15.8892V9.22284H135.768Z" fill="white"/>
<path d="M109.107 12.4713C108.737 12.3955 108.406 12.3766 108.112 12.3766C106.417 12.3766 104.94 13.1909 104.94 15.795V21.325H101.626V9.23279H104.845V11.0225C105.594 9.42218 107.289 9.12863 108.34 9.12863C108.614 9.12863 108.86 9.15704 109.116 9.17598V12.4713H109.107Z" fill="white"/>
<path d="M119.449 15.2639C119.449 12.9819 117.952 11.8266 116.333 11.8266C114.714 11.8266 113.218 12.9819 113.218 15.2639C113.218 17.546 114.714 18.7013 116.333 18.7013C117.952 18.7013 119.449 17.546 119.449 15.2639ZM122.763 15.2639C122.763 18.9759 119.998 21.6746 116.333 21.6746C112.669 21.6746 109.904 18.9759 109.904 15.2639C109.904 11.552 112.669 8.85327 116.333 8.85327C119.998 8.85327 122.763 11.5331 122.763 15.2639Z" fill="white"/>
<path d="M143.684 11.8754C141.989 11.8754 140.616 13.1253 140.616 15.2654C140.616 17.4054 141.989 18.6838 143.684 18.6838C145.379 18.6838 146.724 17.4338 146.724 15.2654C146.724 13.0969 145.379 11.8754 143.684 11.8754ZM137.349 25.9845V9.22401H140.569V10.7012C141.118 9.76376 142.491 8.95887 144.337 8.95887C147.926 8.95887 150 11.6576 150 15.2464C150 18.8353 147.68 21.6098 144.214 21.6098C142.519 21.6098 141.269 20.9469 140.673 20.1326V25.9845H137.349Z" fill="white"/>
<path d="M91.3774 3.41737C94.0761 3.41737 96.2541 4.3927 98.0154 6.26761L95.4965 8.71067C94.3508 7.42285 93.0629 6.76001 91.2733 6.76001C89.6256 6.76001 88.2715 7.29975 87.2204 8.37925C86.1599 9.45874 85.6296 10.8507 85.6296 12.5646C85.6296 14.2786 86.1599 15.7463 87.2299 16.8163C88.2999 17.8864 89.6256 18.4261 91.207 18.4261C92.6463 18.4261 93.7921 18.0947 94.6538 17.4318C95.506 16.769 96.0552 15.8031 96.2919 14.5342H91.6236V11.5988H99.9755C100.013 11.9018 100.023 12.2332 100.023 12.5931C100.023 14.3449 99.6441 15.9168 98.896 17.3087C98.1479 18.7007 97.1063 19.7802 95.7806 20.5472C94.4549 21.3142 92.9493 21.7025 91.2827 21.7025C90.2979 21.7025 89.3321 21.5699 88.4041 21.3047C87.4761 21.0396 86.6239 20.6514 85.8379 20.1211C85.0614 19.6003 84.3702 18.9753 83.7831 18.2557C83.196 17.536 82.732 16.6838 82.41 15.7084C82.0881 14.7331 81.9177 13.6915 81.9177 12.5836C81.9177 11.2768 82.1544 10.0458 82.6278 8.90952C83.1013 7.77322 83.7547 6.80735 84.5785 6.00247C85.4023 5.20705 86.4061 4.58209 87.5802 4.11809C88.7544 3.66357 90.0138 3.42684 91.3679 3.42684" fill="white"/>
</g>
</svg>
